# xmcd
#
# Track frame offsets:
#	150
#	21787
#	42370
#	65782
#	86022
#	112817
#	137452
#	158910
#	183312
#	205487
#	234015
#	259870
#
# Disc length: 3825 seconds
#
# Revision: 1
# Processed by: cddbd v1.5.1PL0 Copyright (c) Steve Scherf et al.
# Submitted via: CDex 1.50Beta5
#
DISCID=9c0eef0c
DTITLE=ZNX - POWER HOUSE
DYEAR=1995
DGENRE=Rock
TTITLE0=HOT PASSION RED
TTITLE1=Don’t stop believin’ you
TTITLE2=ROUTE 3 をブッとばせ!
TTITLE3=恋のE・L・O
TTITLE4=COLD BLOOD
TTITLE5=LAST STAGE
TTITLE6=キャベツ畑の番人
TTITLE7=SWEET MY FRIENDS
TTITLE8=SILENT GAME
TTITLE9=Knockin’ On The Rocky Door
TTITLE10=GA・N・BA・RI・MA・SU・WA
TTITLE11=FOR YOU
EXTD=
EXTT0=
EXTT1=
EXTT2=
EXTT3=
EXTT4=
EXTT5=
EXTT6=
EXTT7=
EXTT8=
EXTT9=
EXTT10=
EXTT11=
PLAYORDER=
